<?xml version="1.0" standalone="no"?>
<!DOCTYPE svg PUBLIC "-//W3C//DTD SVG 20010904//EN"
 "http://www.w3.org/TR/2001/REC-SVG-20010904/DTD/svg10.dtd">
<svg version="1.0" xmlns="http://www.w3.org/2000/svg">

<defs>

<!-- Globe with meridians -->
<svg id="globe" data-name="Layer 1" xmlns="http://www.w3.org/2000/svg" viewBox="0 0 128 128">
  <path fill="#000000;" d="M64,0.29C28.87,0.29,0.29,28.87,0.28,64l0,0C0.29,99.13,28.87,127.71,64,127.71 c35.13,0,63.71-28.59,63.71-63.71l0,0C127.71,28.87,99.13,0.29,64,0.29z M89.2,85.25c-6.24-1.85-13.4-3.09-21.59-3.38V67.61h24.18 C91.53,74.23,90.58,80.06,89.2,85.25z M38.75,42.74c6.26,1.86,13.43,3.11,21.64,3.4v14.25H36.16 C36.41,53.76,37.36,47.93,38.75,42.74z M36.22,67.61h24.17v14.25c-8.17,0.29-15.31,1.52-21.55,3.37 C37.44,80.04,36.48,74.22,36.22,67.61z M91.79,60.39H67.61V46.13c8.17-0.29,15.31-1.52,21.55-3.37 C90.56,47.96,91.53,53.78,91.79,60.39z M120.37,60.39h-21.3c-0.26-7.53-1.35-14.17-2.96-20.05c5.73-2.35,10.52-5.19,14.49-8.17 C116.18,40.31,119.7,49.96,120.37,60.39z M106.14,26.48c-3.39,2.51-7.44,4.93-12.28,6.96C89.56,22.2,83.32,14.38,77.76,9.21 C88.91,12.01,98.71,18.16,106.14,26.48z M86.92,35.88c-5.58,1.64-11.97,2.75-19.31,3.03V10.3C73.04,14.18,81.56,22.1,86.92,35.88z M60.39,10.22v28.69c-7.38-0.28-13.82-1.41-19.43-3.07C46.33,21.94,54.92,14.06,60.39,10.22z M50.24,9.21 c-5.55,5.17-11.79,12.99-16.09,24.23c-4.84-2.03-8.89-4.45-12.28-6.96C29.29,18.16,39.1,12.01,50.24,9.21z M17.41,32.17 c3.97,2.97,8.77,5.82,14.49,8.16c-1.61,5.88-2.7,12.52-2.96,20.05H7.64C8.3,49.96,11.83,40.31,17.41,32.17z M28.94,67.61 c0.26,7.53,1.36,14.17,2.96,20.06c-5.73,2.34-10.52,5.19-14.49,8.16c-5.58-8.14-9.11-17.79-9.78-28.22H28.94z M21.88,101.52 c3.38-2.51,7.43-4.92,12.28-6.96c4.3,11.23,10.53,19.06,16.09,24.23C39.1,115.99,29.29,109.84,21.88,101.52z M41.08,92.12 c5.58-1.64,11.97-2.75,19.3-3.03v28.62C54.97,113.83,46.45,105.9,41.08,92.12z M67.61,117.77V89.09c7.37,0.28,13.79,1.4,19.38,3.05 C81.63,106.04,73.08,113.93,67.61,117.77z M77.77,118.79c5.55-5.17,11.79-12.99,16.09-24.23c4.84,2.03,8.89,4.45,12.27,6.96 C98.71,109.84,88.91,115.99,77.77,118.79z M110.6,95.83c-3.97-2.97-8.77-5.82-14.49-8.16c1.61-5.89,2.7-12.52,2.96-20.06h21.3 C119.71,78.04,116.18,87.69,110.6,95.83z" />
</svg>

<style>
            .cls-1 {
                font-size: 136.64px;
                font-family: Montserrat-Medium, Montserrat;
                font-weight: 500;
            }

            .cls-1 {
              fill: #000;
            }
            .cls-3 {
                fill: #000;
            }

            .cls-2 {
                letter-spacing: -0.03em;
            }
        </style>
<svg id="logo" xmlns="http://www.w3.org/2000/svg" viewBox="0 0 873.39 352.87">

    <g id="Layer_2" data-name="Layer 2">
        <g id="Layer_1-2" data-name="Layer 1"><text class="cls-1" transform="translate(0 316.93)">SAMS<tspan
                    class="cls-2" x="400.21" y="0">K</tspan>
                <tspan x="494.63" y="0">AB</tspan>
            </text>
            <polygon class="cls-3"
                points="738.23 316.93 724.23 316.93 724.23 196.81 644.47 117.05 566.3 195.22 556.4 185.32 644.47 97.25 738.23 191.01 738.23 316.93" />
            <polygon class="cls-3" points="741.65 63.2 741.62 63.17 741.59 63.2 741.65 63.2" />
            <path class="cls-3" d="M863.52,135.44,744.36,254.61v55.55l129-129A129.06,129.06,0,0,0,863.52,135.44Z" />
            <path class="cls-3" d="M744.36,191.19v55.57L861.11,130a128.33,128.33,0,0,0-22.53-33Z" />
            <polygon class="cls-3" points="744.36 127.78 744.36 183.33 834.7 92.99 806.92 65.22 744.36 127.78" />
            <path class="cls-3"
                d="M835.79,276.27A128.39,128.39,0,0,0,873.39,189L745.46,316.92a127.93,127.93,0,0,0,87.35-37.67Z" />
            <polygon class="cls-3" points="738.8 127.76 676.38 65.33 648.6 93.11 738.8 183.33 738.8 127.76" />
            <rect class="cls-3" x="720.65" y="8.72" width="42" height="41.83"
                transform="translate(196.27 533.11) rotate(-45)" />
            <polygon class="cls-3" points="680.3 61.41 738.8 119.9 738.8 64.34 708.09 33.63 680.3 61.41" />
            <polygon class="cls-3" points="744.36 64.36 744.36 119.92 803 61.29 775.21 33.51 744.36 64.36" />
        </g>
    </g>
</svg>



</defs>
</svg>

