<!-- https://veluxfoundations.dk/sites/all/themes/veluxfonden/img/logo.svg#velux -->
<svg version="1.1" xmlns="http://www.w3.org/2000/svg" xmlns:xlink="http://www.w3.org/1999/xlink" viewBox="0 0 720 100">
         <title>The Velux Foundations</title>
            <defs>
                <g id="velux">
          <path d="M259 6.3h-6.4c-.3 0-.5 1.4-.2 1.4h1c1.4 0 2.3.4 3 .8.8.6 1 1.8 1 3.8.2 1.4.2 6.2.2 7.3V26c0 .8 0 3.4-.2 4-.8 6.8-3.7 10.7-10.4 10.8h-1.2c-6.6-.3-9.3-4-9.8-10.6V11.4c0-2.8.3-3.5 3.3-3.7h1.3c.2-.2 0-1.5 0-1.6-2.6.2-4.7.2-7 .2h-7c-.2 0-.2 1.4 0 1.4h1c3.6 0 3.6 1 3.6 5.5v15c0 3.8.3 6.2 2 9.5 2.5 3.8 6.3 5.4 11.8 5.4 4 0 8-1.2 10.4-3.3 3.2-2.7 4.4-7 4.4-12.2V21c0-1.4 0-8.6.2-10 0-.8 0-1.4.3-1.8.3-.8 1.2-1.3 2.8-1.4h1.5c.2-.3.2-1.4 0-1.6h-5.6zm-67 27.2c-.5 0-.8 0-.8.3-1.3 4-2 5.5-4.3 6l-1 .3c0 .2-1 .2-2 .3h-3c-3 0-6.3-.3-6.6-.6-.4-.4-.4-1.3-.4-2.6V26.6c0-.8 0-2 1-2h7.7c1 .2 1.8-2.2-.5-2h-5.7c-.8 0-2.5.3-2.5-.5V8.4c0-.3 1-.3 1.7-.3h6c1.8 0 3 0 4 .3 2.3.6 2.8 2.3 3.3 5.4v.4c.3.3 2 .3 2 0 0-1.3-.2-7.4-.4-8-.4.2-6 .2-8 .2H165c-.2 0-.2 1.3 0 1.4h.7c3.4 0 3.7 1 3.7 4V37c0 3-.5 3.5-3.4 3.7h-1.5c-.3.3-.3 1.5 0 1.6h27.5c.4-.6 1-7 1.2-8 0 0 0-.3-1-.5zm33 0c-.7 0-1 0-1 .3-1.3 4-2 5.5-4.3 6-.2.2-.5.2-.8.3-.3.2-1.2.2-2.3.3h-2.2c-2.3 0-6.2-.3-6.5-.6-.4-.4-.4-1.3-.4-2.6V12.6c0-3.8.2-4.6 3.7-4.8h1c.2 0 .2-1.4 0-1.5H198v1.5h1.2c3.3.2 3.6 1 3.7 4V37c-.2 3-.6 3.5-3.5 3.7l-1.7.2c-.2 0 0 1.2 0 1.3H224.7c.3-.7 1-7 1.2-8 0-.5 0-.6-1-.8zM342.4 0h-21.2s-.2 1.7 0 1.8H322.2c4 .3 4.3 1.2 4.4 5v29.5c0 3.4-.4 4-3.8 4.4H321c0 .3 0 1.8.2 2l8.2-.3h.3c2.6 0 5 0 8.4.2.3 0 .4-1.7.2-1.8h-2c-3.8-.3-4-1.2-4-5.3V24c0-1 0-2.5 1-2.5h2.3c1.5 0 5.8 0 7 .2 1.2 0 2-2.8-.7-2.6-1.2.2-6.8.4-6.8.4-1 0-3 .2-3-.8V2.8c.2-.5 1.5-.5 2.2-.5h7c2 0 3.7 0 4.8.4 2.8.8 3.3 2.7 4 6.4 0 .5 0 .7.2.7.5 0 2 0 2-.2L352 0h-9.5zM370 5.5c-12 0-18.2 7-18.2 19 0 11.2 5.7 18.5 18.3 18.5 12 0 18-7 18-19 .2-11-5-18.6-18-18.6zm.5 35.8c-10.6 0-13.3-9.5-13.3-17.8 0-10.6 4.7-16.2 12.4-16.2 10.4 0 13.2 9 13.2 18 0 9.8-4 16-12.3 16zm136-33c-3.4-1.7-7.4-2-11.6-2H479c-.2.2-.2 1.5 0 1.6h1.3c2.8.3 3 1.3 3 4.3v25c0 3-.4 3.5-3.4 3.7h-1.4c-.2.3 0 1.5 0 1.6h7.4l9.5.2c4.4 0 8.5-1 11.6-2.7 5.4-3.2 8-8.8 8-16-.2-6.4-2.6-12.5-8.6-15.6zm-.4 28.3c-1 1.4-2.6 2.4-4.4 3-1.8.8-4 1-6.5 1h-1c-2.2 0-4-.3-5.4-1.3-.5-.8-.6-4.2-.6-6V13c0-1.5 0-4.2.3-4.4.6-.2 2-.5 4.3-.6 3 0 5 .3 7 .7 2 .5 3.4 1 4.7 2 1 .7 2 1.6 2.6 2.7 2 3.2 2.5 7.3 2.5 11 0 5.3-1 9.4-3.4 12zM474 6c-1.8.2-3.4.2-5.6.2h-6c-.3 0-.3 1.4 0 1.4h1c2 .2 2.8.6 3.2 1.4.2.4.3 1 .4 2 .3 1.5.3 8.3.3 9.5v15c-1.6-1.6-7.3-8.4-9.6-11l-5.3-6c-1-1.3-9-10.6-9.7-12.3H434c-.4 0-.4 1.3-.2 1.5h1c1.4 0 2.6.4 3.3 1 .8.8 1 1.6 1 2.7v25.4c-.2 1.4-.3 2.4-.7 3-.4.4-1.2.7-2.5.8h-1.5c-.2.3-.2 1.5 0 1.6h12.2c.2-.2.3-1.3 0-1.5H445c-1.5-.2-2.5-.5-3-1.2l-.4-2.3c-.2-1.7-.2-8-.2-9V16c0-1 0-3.3.2-3.7.8.7 5.7 6.4 6.6 7.4l13 15 5.8 6.7c.8 1 1.4 1 1.6 1 .6 0 1-.2 1.2-1V11.3c0-1.3.2-2.2.6-2.7.3-.5 1.4-.8 3-1h1s0-1.3-.3-1.5zM287 21c1.5-2.4 4.5-6.3 5.5-7.6l.8-1c2-2.7 3.6-4.3 5.8-4.5l1.4-.2c.2-.2.2-1.3 0-1.5H288.2c-.2 0-.3 1.3 0 1.5h1.4l1.3.5c.3.2.4.6.4 1.2v.6c-.2.4-.3 1-.7 1.4l-5.2 8 1.4 1.5zm-2.8-.2c-1-1.2-4.5-6.6-5.6-8-.4-.6-.8-1-1-1.5l-.6-1c-.5-1-.5-1.6 0-2 0-.2.8-.4 1.6-.4l1.5-.2c.3-.2.3-1.4 0-1.5h-13.5c-.2 0-.2 1.2 0 1.4l1.6.4c2.2.5 3.2 1.8 4.8 4l1.3 2 7 9.7.4.8v.5l-.6 1-7.4 10-2.2 2.6c-1.2 1.3-2.3 2-4 2.2-.3 0-1.2 0-1.5.2-.2.2-.2 1.4 0 1.5h12.5c.3-.2.4-1.3.2-1.5h-.2c-.3 0-1.4 0-1.6-.2-.6 0-1-.3-1.2-.4-.3-.3-.4-.8-.3-1.4 0-.4.2-1 .5-1.4 1.3-2.2 6.2-9.6 7-10.6h.4c1 1.6 5.4 7.6 6.6 9.4.3.4.6 1 1 1.3.4.8.7 1.4.8 2v.5c-.2.4-1 .6-2 .7H288c-.3.3-.2 1.4 0 1.6h14c.3-.2.4-1.3 0-1.5h-1.7c-1.6-.3-2.6-1-4-3l-.7-1-9-12.8-2.4-3.4zM164.2 0c-2.2 0-4.3 0-6.4.2h-.2c-2.3 0-4.6 0-6.5-.2-.2.2-.2 1.5 0 1.7h1.2c1.8.3 2.8.7 3 1.3v1l-.2 1.6-.2.8c-.7 2-8.3 25.5-9.5 28h-.4c-1-2.2-3.7-9.2-4.6-11.4 0-.3-.5-1.4-.7-1.8l-3.7-9.7-1.7-4.5-.5-1.5-.3-1.7v-1c.4-.5 1.3-1 3-1l1.3-.2c.3-.2.2-1.6 0-1.7h-13c-1 0-2 0-2.8-.2-.3.2-.4 1.5 0 1.7h1.2c2.3.3 3.2 1.3 4.5 4.3 0 .3.5 1.3.7 1.6l5.8 14.8 5 12.6c.6 1.6 2.2 5.5 2.8 7.5.2.3.3.6.8.6.2 0 1.8 0 2-.8 1-2.2 13-35 14-37 .2 0 .2-.2.3-.4 1-1.7 1.7-2.6 3.2-3 .2 0 1.7 0 2-.2.2 0 .2-1.4 0-1.6zM19 34.4c0 5.7.2 6.5 3.5 6.8l1.8.2c.3.2.2 1.2 0 1.4l-7.4-.2-7.7.2c-.3-.2-.4-1 0-1.4l2-.2c3.2-.3 3.5-1 3.5-6.8V10c0-1.6 0-1.6-1.7-1.6h-2c-2.6 0-5.6 0-7 1.3C2.7 11 2 12 1.5 13.4c-.5.4-1.3 0-1.5-.3 1-2.3 1.5-4.3 2-6.5l6 .2h20.3c3 0 5.2-.3 5 0-.6 2.3-.6 5.3-.4 7-.3.3-1.3.3-1.6 0-.2-1.4-.6-3.4-1.4-4-1.3-1-3.4-1.4-6.5-1.4H21c-1.7 0-1.6 0-1.6 1.8v24.4zM47.5 25c-2.7 0-2.8 0-2.8 1.7v7.7c0 5.7.3 6.5 3.4 6.8l1.6.2c.3.2.2 1.2 0 1.4l-7.2-.2c-2.4 0-4.3 0-6.5.2-.4-.2-.5-1-.2-1.4l1-.2c3-.5 3.2-1 3.2-6.8V14.8c0-5.7-.4-6.6-3.3-6.8h-1.5c-.3-.3-.2-1.3 0-1.5l7 .2c2.3 0 4.2 0 6.6-.2.3.2.4 1 0 1.4h-1c-3 .3-3.3 1-3.3 6.8V21c0 1.7 0 1.7 2.8 1.7h15c2.8 0 3 0 3-1.7v-6.2c0-5.7-.2-6.5-3.5-6.8h-1c-.4-.3-.3-1.3 0-1.5l6.8.2c2.2 0 4 0 6.6-.2.3.2.4 1 0 1.4h-1c-3 .3-3.3 1-3.3 6.8v19.5c0 5.7 0 6.4 3.3 6.8l1.3.3c.3.2.2 1.2 0 1.4l-7-.2c-2.2 0-4.3 0-6.7.2-.4 0-.4-1.3-.2-1.3l1-.2c3.5-.5 3.5-1 3.5-6.8v-7.7c0-1.6 0-1.7-2.8-1.7h-15zm377-18.4h-6.6s-.2 1.4 0 1.4h1c1.5 0 2.4.4 3 .8 1 .6 1 1.8 1.2 3.8v17.6c-1 6.8-3.8 10.7-10.5 10.8h-1.7c-6.6-.2-9.3-4-9.8-10.5V12c0-3 .3-3.7 3.3-4h1.3c.2 0 0-1.4 0-1.5h-14c-.2 0-.2 1.5 0 1.5h1c3.6 0 3.6 1 3.6 5.5v14.8c0 3.8.3 6.2 2 9.5 2.5 3.8 6.3 5.4 11.8 5.4 4 0 8.5-1 11-3.2 3-2.7 4.3-7 4.3-12.2v-6.6c0-1.4 0-8.6.2-10 0-.8 0-1.4.3-1.8.3-.8 1.2-1.3 2.8-1.4h1.6c.2-.2.2-1.3 0-1.5h-5.8zM106 34c-.5 0-.8 0-.8.3-1.3 3.8-2 5.5-4.3 6-.4 0-.6 0-1 .2l-2 .2h-3c-3 0-6.3-.3-6.6-.6-.4-.3-.4-1.2-.4-2.5V27c0-.8 0-2 1-2h7.6c1.3.2 1.6-2.4-.6-2h-5.5c-.8 0-2.5.3-2.5-.5V9c.2-.3 1.3-.3 2-.3h5.6c2 0 3.2 0 4 .3 2.4.6 3 2.3 3.4 5.4 0 0 0 .4.4.4h1.6c0-1.5-.3-7.6-.5-8H78.8c-.2 0-.2 1.3 0 1.4h.7c3.4 0 3.7 1 3.7 4v25c0 3-.5 3.6-3.4 3.8h-1.5c-.3.3-.3 1.5 0 1.6h27.5c.4-.7 1-7 1.2-8 0-.2 0-.4-1-.6zm434.3-4.7c-.4-1.2-.7-1.4-2.5-1.4h-9.3c-1.5 0-2 0-2.3 1.2L524 35c-1 2.4-1.4 3.8-1.4 4.4 0 .7.3 1 1.8 1l2 .3c.4.3.4 1 0 1.4h-12.5c-.4 0-.5-1 0-1.3l2-.2c1.4 0 2.7-.7 3.6-2.7 1-2.5 2.8-6 5.4-12.2l6.3-14.7c1-2 1.2-3 1-4 1.6-.4 2.6-1.4 3.3-2 .4 0 .8 0 1 .4.7 2.4 1.7 5 2.6 7.3l8.5 22c1.8 4.6 2.6 5.4 5.3 5.7l1.7.2c.4.3.3 1 0 1.4l-7.5-.2c-3 0-5.3 0-7 .2-.6-.2-.7-1-.2-1.4l1.8-.2c1.3 0 2.2-.4 2.2-1s-.3-1.6-.8-3l-3-7zM528 24.5c-.4 1.3-.3 1.3 1.4 1.3h7.6c1.8 0 2-.2 1.4-1.7l-3.3-8.8-1.3-3.4c-.3.3-1 1.6-1.6 3.2l-4 9.5zm42.7 9.3c0 5.7 0 6.5 3.4 6.8l2 .2c.2 0 0 1.2-.2 1.4l-7.3-.2-7.8.2c-.3-.2-.4-1.3 0-1.4l2-.2c3.2-.3 3.5-1 3.5-6.8V9.5c0-1.7 0-1.7-1.7-1.7h-2.2c-2.4 0-5.5 0-7 1.4-1.2 1.2-1.8 2.4-2.4 3.8-.5.3-1.3 0-1.6-.4 1-2.5 1.7-6 2-8 .3-.2 1-.3 1.2 0C555 6 556.8 6 559.4 6h20.4c3 0 3.5 0 4.4-1.5.3 0 1 0 1 .2-.6 2-1 6.6-.8 8.2-.2.4-1.2.4-1.5 0-.3-1.3-.7-3.3-1.5-4C580.2 8.5 578 8 575 8h-2.6c-1.7 0-1.6 0-1.6 1.8v24zM628 5.4c-12 0-18.2 7-18.2 19 0 11.2 5.7 18.5 18.3 18.5 12 0 18-7 18-19 0-11-5-18.6-18-18.6zm.5 35.7C618 41 615 31.7 615 23.4 615 12.7 620 7 627.6 7c10.4 0 13.2 9 13.2 18 0 10-4 16-12.2 16zM595 14.6c0-5.8 0-6.7-3.4-7h-1.4c-.3-.3-.2-1.3 0-1.5l7 .2c2.3 0 4.2 0 7-.2.3.2.4 1 0 1.4H603c-3.3.4-3.4 1.3-3.4 7V34c0 5.7 0 6.4 3.4 6.8l1.4.2c.3.2.2 1.2 0 1.4l-7-.2c-2.4 0-4.3 0-7 .2-.3-.2-.4-1 0-1.4l1.3-.2c3.3-.4 3.4-1 3.4-7V14.6zm95-8.2h-12c-.3 0-.3 1.5 0 1.5h1c2 .2 3 .6 3.3 1.4.2.4.3 1 .4 2 .3 1.5.3 8.3.3 9.5v15c-1.6-1.6-7.3-8.4-9.6-11l-5.3-6c-1-1.3-9-10.7-9.6-12.3h-8.8c-.3 0-.3 1.2 0 1.4h.8c1.5.2 2.7.5 3.4 1.2.7.7 1 1.5 1 2.6v17c0 1.2 0 6.8-.2 8.4 0 1.4-.2 2.4-.6 3-.4.4-1.2.7-2.5.8H650c-.2.3-.2 1.5 0 1.6h12.2c.2-.2.2-1.3 0-1.5l-1.6-.2c-1.4 0-2.4-.4-2.8-1-.2-.6-.4-1.4-.5-2.4-.2-1.7-.2-8-.2-9v-12c0-1 0-3.3.3-3.7.8.7 5.7 6.4 6.5 7.4l13 15c1.6 2 5.2 6 5.8 7 .8 1 1.5.8 1.7.8.8 0 1-.2 1-.7V11.7c0-1.3.2-2.2.5-2.7s1.4-1 3-1l1-.2c.4-.2.4-1.3 0-1.5zM704.2 43c-5.3 0-8.6-1.4-9.8-2-.8-1.2-1.6-5-1.7-7.6.3-.4 1.3-.5 1.5-.2 1 2.8 3.5 8 10.8 8 5.4 0 8-3 8-6.2 0-2.4-.6-5-5.2-7.6l-6-3.4c-3-1.8-6.8-5-6.8-9.4 0-5.2 4.7-9.4 12.8-9.4 2 0 4.2.3 6 .7l2 .2c.7 1.3 1.2 4.4 1.2 6.6-.3.3-1.3.5-1.6.2-.8-2.6-2.5-6.2-8.6-6.2-6.2 0-7.5 3.5-7.5 6 0 3.2 3 5.4 5.3 6.7l5 2.7c4 2 8 5.3 8 10.5 0 6.2-5 10.3-13.3 10.3zM599 90c-.2 0-.4 0-.4.3-.7 2-1 3-2.3 3.3h-.4l-1.3.2h-2.2c-1.5 0-3.4-.2-3.5-.4-.2-.2-.2-.7-.2-1.4v-5.8c0-.5 0-1 .5-1h4.2c1 0 1.3-1.3 0-1.2H590c-.4 0-1.2.2-1.2-.3v-7.4c0-.2.7-.2 1-.2h3.8c1 0 1.7.2 2.2.3 1.3.3 1.5 1.3 1.8 3v.2h1c0-.8 0-4-.2-4.4-.2.2-3.2.2-4.3.2H584v.7h.4c1.8 0 2 .4 2 2V92c0 1.6-.3 2-1.8 2h-.8c-.2.2-.2.8 0 1l3.6-.2H599c0-.3.4-3.7.6-4.3 0 0 0-.2-.5-.2zm-219.8 2.6l.5-.7-13.4-8.3 12-7-1.7-2.7-13.4 7.8-17-10.4-.4.7 16.6 10.2-2.5 1.5-14-10-.5.6 13.4 10-2.4 1.3-14-11.7-.6.6L355.8 86l-12.4 7.2L345 96l13.4-7.8 9.3 7.8.6-.7-9-7.6 2.5-1.5L375 96l.5-.7-13-9.6 2.8-1.7 14 8.6zm-3-17.5l.7 1.4-11.6 6.7-1.4-.8 12.2-7zm-31 20l-.6-1.4 12-7 1 1-12.3 7.3zm13.3-7.8l-1.2-1 2.4-1.4 1.3 1-2.5 1.4zm3.3-2l-1.3-1L363 83l1.5 1-2.7 1.4zm105.6-10h-3.8c-.2 0-.2.7 0 .7h.7c.8 0 1.3 0 1.6.3.4.4.5 1 .5 2v9.8c-.4 3.7-2.2 5.8-6 5.8h-.7c-3.8 0-5.3-2.2-5.6-5.8v-10c0-1.7 0-2 2-2.2h.6c.2 0 .2-.8 0-.8h-8v.8h1c.7.2 1.7.3 1.7 1.8v9.4c0 2 .2 3.4 1.2 5.2 1.4 2 3.5 3 6.7 3 2.4 0 4.6-.7 6-1.8 1.8-1.5 2.5-4 2.5-6.7v-9.2c0-.4 0-.7.2-1 .2-.3.7-.6 1.6-.7h1c.2 0 .2-.7 0-.7h-3.4zm-36.4 15c-.3-.2-.5 0-.5 0-.7 2.2-1 3-2.3 3.4h-.4l-1.2.2h-2.3c-1.5 0-3.4-.2-3.5-.4-.2-.2-.2-.7-.2-1.4v-5.8c0-.5 0-1 .5-1h4.3c1 0 1.3-1.3 0-1.2h-3.5c-.4 0-1.2.2-1.2-.3v-7.4c0-.2.7-.2 1-.2h3.8c1 0 1.7.2 2.2.3 1.3.3 1.5 1.3 1.8 3v.2h1c0-.8 0-4-.2-4.4-.2.2-3.2.2-4.3.2h-10.4v.7h.4c1.8 0 2 .4 2 2V92c0 1.6-.3 2-1.8 2h-.8c-.2.2-.2.8 0 1l3.6-.2h11.8c0-.3.4-3.7.6-4.3.2 0 0-.2-.4-.2zm18.2-.2c-.2 0-.3.2-.3.4-.8 2-1.7 2.8-3 3l-.4.2h-2c-1.3.2-4 0-4.2-.3-.2-.2-.2-.7-.2-1.4V78.4c0-2 0-2.5 2-2.6h.6v-1l-3.7.2h-3.8c-.2 0-.2.8 0 .7h.6c1.8 0 2 .4 2 2v13.8c0 1.6-.3 2-1.8 2h-1v1h15c.2-.4.6-3.8.7-4.4 0-.2 0-.2-.5-.4zm62.4-14.8h-10.4v.7h.4c1.8 0 2 .4 2 2.2V92c0 1.5-.2 1.8-1.8 2h-1v.8h8V94h-1c-1.6 0-1.8-.5-1.8-2.4v-5.3c0-.5 0-1 .6-1h4.5c.7 0 1-1.3 0-1.2-.6.2-3.7.2-3.7.2-.4 0-1.3 0-1.3-.4v-7.4c0-.2.7-.2 1-.2h3.8c1 0 1.8 0 2.3.2 1.3.4 1.5 1.3 1.8 3 0 0 .2 0 .2.2h1l-.3-4.4h-4.4zm15-.5c-6.5 0-9.8 4-9.8 10.3 0 6 3 10 10 10 6.4 0 9.7-3.7 9.7-10.2 0-6-2.7-10-9.8-10zm.4 19.5c-5.7 0-7.2-5.2-7.2-9.7 0-5.8 2.6-8.8 6.7-8.8 5.6 0 7 5 7 9.8 0 5.4-2 8.7-6.5 8.7zm50.4-18c-1.8-1-4-1.2-6.2-1H562c-.2.2 0 .8 0 1h.7c1.5 0 1.6.7 1.6 2.3V92c0 1.6-.2 2-2 2h-.6v1l3.7-.2h.3l6 .2c2.3 0 4.5-.5 6.2-1.5 2.8-1.7 4-4.8 4-8.8 0-3.5-1.4-6.8-4.6-8.5zm-.2 15.5c-.6.7-1.4 1.3-2.5 1.7-1 .4-2 .6-3.5.6H570c-1.3 0-2.3-.2-3-.8-.4-.4-.5-2.3-.5-3.2V78.8c0-.8 0-2.3.2-2.4.4 0 1.5-.3 2.3-.3 4.8 0 6 1 7 1.6.7.4 1.2 1 1.5 1.4 1 1.8 1.4 4 1.4 6 0 3-.5 5.2-1.8 6.7zm46-16.6l-3.2.2h-3.4v.6h.6c1 .2 1.6.4 1.8.8l.2 1c.2 1 .2 4.6.2 5.2v8.4c-2-1.8-4.5-5-5.7-6.2l-3-3.5c-.6-.7-4.8-5.6-5.2-6.5H600.8v.8h.5c.8 0 1.5.3 1.8.7.4.4.5.8.5 1.4v13.7c0 .7-.2 1.3-.4 1.6 0 .3-.6.4-1.2.5h-.8v1l3-.2h3.5c.2 0 .3-.7 0-.7l-.8-.2c-.8 0-1.3-.2-1.5-.6L605 92c-.2-1-.2-4.3-.2-5v-8.7l3.7 4.2 7.2 8 3 3.3c.2.4.8 1 1 1 .2.2 1 .2 1-.2V77.7c0-.7 0-1.2.3-1.5.2-.3.7-.5 1.7-.6h.4c.2.3.2-.5 0-.5zm-63.8 0l-3 .2H553c-.2 0-.2.7 0 .7h.5c1 0 1.6.2 1.8.6l.2 1c.2 1 .2 4.6.2 5.2V91c-1-1-4-4.6-5.2-6l-3-3.4c-.5-.7-4.8-5.8-5-6.7h-4.9c-.2 0-.2.7 0 .7h.5c1 0 1.6.2 2 .6.3.4.4.8.4 1.4v13.8c0 .7-.2 1.3-.4 1.6-.2.4-.7.5-1.3.6h-.8c-.2.2-.2.8 0 1l3-.2h3.4c.2 0 .2-.6 0-.7h-.8c-.8-.2-1.3-.3-1.5-.7 0-.3 0-.7-.2-1.2V78.2l3.5 4 7 8.2c1 1 3 3.3 3.2 3.7.4.7.7.6.8.6.2 0 .6 0 .6-.4-.2-.5 0-4.5 0-5V77.5c0-.7 0-1.2.3-1.5.2-.3.7-.5 1.7-.6h.4V75zM484 83.3l3-4 .6-.7c1.2-1.4 2-2.3 3.3-2.4h.6v-.8h-6.8v.8h1c.3 0 .5 0 .6.2.2 0 .2.4.2.7v.2l-.4.7c-.5.6-2 3-3 4.2l.7 1zm-1.6 0c-.5-.8-2.6-3.7-3-4.5l-.7-.8c0-.3-.2-.5-.3-.6-.3-.5-.3-.8 0-1 0 0 .4-.3 1-.3h.8v-.7h-7.8c-.3 0-.4.8-.2.8l1.2.2c1.2.2 1.8 1 2.7 2.2.2 0 .7.8.8 1l4 5.3.2.5-.4.7-4.2 5.3-1.2 1.5c-.7.7-1.3 1-2.3 1.2h-1c0 .2 0 1 .2 1l3.2-.2H479c.2 0 .3-.6 0-.7h-1c-.2 0-.4 0-.5-.2-.2-.2-.2-.4-.2-.8 0-.2 0-.5.4-.8.8-1.2 3.5-5.3 4-5.8h.2c.6 1 3 4.2 3.7 5l.5.8.5 1v.3c0 .2-.5.3-1 .4h-1v.8h8s.2-.7 0-.8h-1c-1-.2-1.4-.6-2.3-1.6l-.4-.5-5.2-7-1.4-2zm-67.8-8h-6s-.2.6 0 .7h.5c1 0 1.4.3 1.5.6v.4s0 .5 0 .8l-.2.4-4.5 13.3c-.2.4-.2.4-.3.2l-2.7-6.6-2.6-6.8-.2-.5v-1.1c0-.4.6-.4 1.4-.5h.5v-.8h-7.3s-.2.7 0 .8h.5c1 0 1.5.5 2 2 .2 0 .3.5.4.7l3 7 2.4 5.7c.3.7 1 2.7 1.4 3.4 0 0 0 .2.3.3 0 0 1 .2 1-.2.4-1 6-16.3 6.5-17.2v-.2c.5-.8.8-1.2 1.6-1.3h1s0-.8-.2-1zm-300.8.3h-5.4c-.2 0-.3.7 0 .8h.4c.8.2 1.3.4 1.4.7V78.2l-.2.3-4 13.3c-.2.4-.3.4-.4.2l-2.5-6.6c-.2-1-2.4-6.7-2.5-7l-.2-.4V77c.2-.5.6-.5 1.4-.6h.5v-1l-3 .2h-3s-.8 0-1.2-.2c0 0-.2.7 0 .8h.5c1 0 1.5.5 2 2 .2 0 .3.5.4.7l2.8 7 2.4 5.7 1.3 3.3s0 .2.3.3c0 0 1 .2 1-.3.5-1 5.6-16.3 6-17 0-.2.2-.2.2-.3.4-.8.5-1.2 1.2-1.3h.6v-1zm101 0h-9.6c-.2 0-.2.8 0 .7h.4c1.8 0 2 .5 2 2.3v13.7c0 1.6-.2 2-1.8 2h-.8v1l3.8-.2h4s.2-.7 0-.7h-.8c-1.7-.2-2-.6-2-2.5v-5.4c0-.5 0-1 .6-1h4c.5 0 .7-1.3-.3-1.2h-3c-.3 0-1.3.2-1.3-.3v-7.5c0-.2.2-.2 1-.2h3.2c1 0 1.7 0 2.2.2 1.3.4 1.5 1.3 1.8 3 0 0 0 .2.2.2 0 0 1 0 1-.2-.2-.8-.3-4-.4-4.3 0 .3-3 .3-4 .3zm-76.3 15c-.3-.2-.3 0-.4 0-.6 2.2-1 3.2-2.3 3.6h-.3l-3.3.2c-1.5 0-2-.2-2.2-.4-.2-.2-.2-.8-.2-1.5V78.8c0-2 0-2.5 2-2.6h.6s.2-1 0-.8h-7.7v.8h.7c1.8 0 2 .5 2 2v14c0 1.6-.3 2-1.8 2-.4 0-.6.2-.6.2v.8h13.6l.7-4.3c0-.4 0-.5-.5-.6zm15.2 0c-.3-.2-.3 0-.4 0-.7 2.2-1 3.2-2.4 3.5l-4 .2c-1.5 0-2-.2-2.2-.4-.2-.2-.2-.7-.2-1.4V79c0-2.2 0-2.6 2-2.7h.6c.2 0 .2-.8 0-.8h-7.7c-.2 0 0 .7 0 .8h.7c1.8 0 2 .5 2 2v14c0 1.6 0 1.8-1.4 2l-.5.2v.8h13.2l.7-4.3c0-.4 0-.5-.5-.6zm146.5 0c-.3-.2-.5 0-.5 0-.7 2.2-1 3-2.3 3.4H294c-.8 0-3.3 0-3.4-.2-.2-.2-.2-.7-.2-1.4v-5.8c0-.5 0-1 .6-1h4.2c.6 0 1-1.3-.2-1.2h-3.2c-.4 0-1.4.2-1.4-.3v-7.4c0-.2.6-.2 1-.2h3.2c1 0 1.7 0 2.2.2 1.3.4 1.5 1.3 1.8 3v.2h1c0-.8 0-4-.2-4.4h-13.9v.8h.4c1.8 0 2 .5 2 2.3v13.7c0 1.6-.3 2-1.8 2h-.8v.2c-.2 0-.2.7 0 .8h14.7l.6-4.4c0-.2 0-.3-.4-.4zm-130-15h-3.4c-.3 0-.3.7 0 .8 0 0 1.3 0 2 .5.5.4.6 1 .6 2V88.8c-.4 3.7-2 5.8-5.5 6h-.7c-3.5-.2-5-2.3-5.2-6V78.5c0-1.6.2-2 1.8-2h.7c.2 0 0-1 0-1-1.3.2-2.4.2-3.6.2H153c-.2 0-.2.7 0 .7h.4c2 0 2 .6 2 3v8c0 2.2 0 3.5 1 5.3 1.3 2 3.4 3 6.3 3 2 0 4.4-.7 5.7-1.8 1.7-1.5 2-4 2-6.7v-9l.2-1c0-.3 0-.6 1-.7h.6c.2 0 .2-1 0-1-1 .2-1.4.3-2.5.3zm59.4-.5c-6.6 0-10 4-10 10.4 0 6 3.2 10 10 10 6.5 0 9.8-3.7 9.8-10.2 0-6-2.8-10.2-9.8-10.2zm.2 19.6c-5.8 0-7.2-5.2-7.2-9.7 0-6 2.6-9 6.7-9 5.6 0 7.2 5 7.2 9.8 0 5.4-2.3 8.8-6.7 8.8zm49.5-18c-1.8-1-4-1.3-6.2-1.2h-5c-1.2 0-2.3 0-3.4.2-.2 0-.2.8 0 .8h.7c1.5.2 1.6.7 1.6 2.4v13.5c-.2 1.6-.3 2-2 2l-.7.2v.8h8.9c2.5 0 4.7-.4 6.4-1.4 3-1.8 4.2-5 4.2-9 0-3.4-1.3-6.7-4.5-8.5zM279 92c-.5.8-1.3 1.3-2.4 1.7-1 .4-2 .6-3.5.6h-.4c-1.3 0-2.2-.2-3-.8-.3-.4-.3-2.3-.3-3.2V79c0-.7 0-2.2.2-2.3.4 0 1-.3 2.3-.3 4 0 5.6 1 6.3 1.5.7.3 1.2.8 1.5 1.4 1 1.8 1.4 4 1.4 6 0 3-.6 5-2 6.6zm45.2-16.6h-6.5c-.2 0-.2.8 0 .8h.6c1 0 1.6.3 1.8.7.2 0 .3.5.3 1 .2.8.2 4.5.2 5v8.2c-1-.8-4-4.5-5.2-6l-3-3.3c-.5-.7-4.8-6-5-6.8h-4.9v.8h.5c.7 0 1.4.2 1.8.6.4.4.5.8.5 1.4v13.8c0 .7-.2 1.3-.4 1.6-.3.3-.8.4-1.4.5h-.8v.8h6.5c.2-.2.2-.7 0-1h-.8c-.8 0-1.3-.2-1.5-.6l-.3-1.2V78.4l3.5 4 7 8.3c1 1 3 3.3 3.2 3.7.4.6.8.5.8.5.2 0 .7 0 .6-.6V77.8c.2-.7.2-1.2.4-1.5.2-.3.7-.5 1.7-.6h.3v-.3zm-61.6 0H256v.8h.7c1 0 1.6.3 1.8.7l.2 1c.2.8.2 4.5.2 5v6.6c0 .4 0 1.5-.2 1.6-.8-.8-4-4.5-5-6l-3-3.3c-.6-.7-5-6-5.2-6.8h-4.8c-.2 0-.2.8 0 .8h.5c.8 0 1.5.2 1.8.6.5.4.6.8.6 1.4v13.8c0 .7-.2 1.3-.4 1.6-.2.3-.7.4-1.3.5h-1v.8h6.6c.2 0 .2-.7 0-.8h-.8c-.8-.2-1.3-.3-1.5-.7L245 92V78.6l3.5 4 7 8.3c1 1 3 3.3 3.2 3.7.5.6.7.5.8.5.2 0 .6 0 .6-.3V82.5c0-.6 0-3.7.2-4.6 0-.8 0-1.3.3-1.6.2-.3.7-.5 1.7-.6h.4c.2.3.2-.3 0-.4zM119.3 86.7V79c0-2-.3-2.6 1.6-2.7h.3v-.8H115c-.2 0-.2.8 0 .8h.6c1 0 1.3.5 1.3 2v13.3c0 2-.3 2.6-2 2.7h-.7v.8h7.7v-.7h-.7c-1.8 0-2-.5-2-2v-5.6zm77.2 7.5h-.7c-.6 0-1 0-1.2-.2-.5-.4-.5-1-.6-2-.2-4.3-.3-9.7-.3-13v-.6c0-1.2.3-1.7 1.2-2h1.4v-1c-1.6.2-2.7.2-4 .2h-.8c-.3 1.6-1 2.7-2 5.5l-2 5.8-2 4.6-4.7-11c-1-2.4-1.7-3.6-1.6-4.8h-5c-.2 0-.2 1 0 .8h1.6c.6.3 1 .6 1 1.3V79c-.2 1.5-.3 4-.4 6.4L176 92c0 1.4-.3 2-1 2l-.7.2h-.7v.8h6.3s.2-.8 0-.8h-.7c-1 0-1.5-.2-1.7-.6l-.2-2c0-2.5 0-5 .2-7l.3-5c.6 1.3 1.2 2.8 2 4l4.6 11.2s0 .2.3.2l.2-.2 1-2.2 3.6-9.2 1.7-4.5v13.7c0 .6 0 1-.2 1.3h-.2c0 .2-.5.3-1 .3h-.7c-.2 0 0 1 0 1 1.5-.2 2.2-.2 3.4-.2 1.3 0 2.3 0 3.8.2.2 0 .3-1 0-1z"/>
                </g>
        </defs>
</svg>